<svg width="13" height="15" viewBox="0 0 13 15" fill="none" xmlns="http://www.w3.org/2000/svg">
<path d="M1.50403 6.18286C1.52907 5.86066 1.67076 5.56002 1.90086 5.34082C2.13096 5.12162 2.4326 4.99993 2.7457 5H10.2543C10.5674 4.99993 10.869 5.12162 11.0991 5.34082C11.3292 5.56002 11.4709 5.86066 11.496 6.18286L11.996 12.6114C12.0098 12.7883 11.9879 12.9663 11.9318 13.134C11.8756 13.3018 11.7865 13.4557 11.6699 13.5862C11.5533 13.7166 11.4118 13.8207 11.2544 13.8919C11.0969 13.9632 10.9269 13.9999 10.755 14H2.24505C2.07313 13.9999 1.90309 13.9632 1.74562 13.8919C1.58816 13.8207 1.44668 13.7166 1.3301 13.5862C1.21352 13.4557 1.12436 13.3018 1.06824 13.134C1.01211 12.9663 0.990239 12.7883 1.00399 12.6114L1.50403 6.18286V6.18286Z" stroke="white" stroke-width="1.5" stroke-linecap="round" stroke-linejoin="round"/>
<path d="M9 7V3.66667C9 2.95942 8.73661 2.28115 8.26777 1.78105C7.79893 1.28095 7.16304 1 6.5 1C5.83696 1 5.20107 1.28095 4.73223 1.78105C4.26339 2.28115 4 2.95942 4 3.66667V7" stroke="white" stroke-width="1.5" stroke-linecap="round" stroke-linejoin="round"/>
</svg>
